<?xml version="1.0" standalone="no"?>
<!DOCTYPE svg PUBLIC "-//W3C//DTD SVG 20010904//EN"
 "http://www.w3.org/TR/2001/REC-SVG-20010904/DTD/svg10.dtd">
<svg version="1.0" xmlns="http://www.w3.org/2000/svg"
 width="528.000000pt" height="528.000000pt" viewBox="0 0 528.000000 528.000000"
 preserveAspectRatio="xMidYMid meet">
<metadata>
Created by potrace 1.14, written by Peter Selinger 2001-2017
</metadata>
<g transform="translate(0.000000,528.000000) scale(0.100000,-0.100000)"
fill="#000000" stroke="none">
<path d="M3648 4865 c-2 -2 -21 -6 -43 -9 -50 -8 -65 -11 -134 -30 -30 -8 -59
-12 -64 -9 -6 4 -7 1 -2 -7 6 -10 4 -12 -8 -7 -10 3 -17 2 -17 -3 0 -6 -6 -10
-13 -10 -7 0 -33 -10 -58 -22 -24 -11 -50 -21 -56 -21 -7 0 -13 -4 -13 -8 0
-7 -60 -33 -72 -30 -5 0 -8 -3 -8 -7 0 -5 -19 -19 -42 -32 -51 -27 -222 -150
-226 -162 -2 -4 -10 -8 -18 -8 -9 0 -12 -4 -9 -10 3 -5 2 -10 -3 -10 -5 0 -27
-18 -49 -40 -22 -21 -43 -36 -47 -33 -3 4 -6 1 -6 -7 0 -7 -19 -31 -42 -54
-24 -23 -59 -62 -78 -85 -19 -24 -40 -48 -45 -55 -14 -16 -37 -49 -104 -150
-55 -82 -60 -87 -71 -67 -6 12 -8 27 -4 33 4 7 3 8 -4 4 -6 -4 -16 4 -23 16
-15 28 -136 148 -149 148 -6 0 -10 7 -10 16 0 8 -4 13 -9 10 -5 -3 -19 2 -32
12 -39 29 -99 62 -115 62 -8 0 -14 5 -14 10 0 6 -8 10 -18 10 -10 0 -22 3 -26
7 -8 8 -74 33 -101 38 -11 2 -31 6 -45 10 -14 3 -38 8 -55 12 -36 8 -237 9
-280 2 -17 -3 -36 -9 -43 -13 -7 -4 -12 -4 -12 0 0 3 -6 2 -12 -3 -14 -11 -68
-27 -81 -25 -4 1 -7 -3 -7 -10 0 -6 -2 -9 -5 -6 -15 14 -295 -153 -295 -175 0
-6 -3 -8 -6 -5 -6 7 -39 -21 -122 -104 -66 -65 -101 -107 -159 -192 -23 -33
-46 -65 -51 -71 -4 -5 -14 -25 -21 -42 -7 -18 -17 -33 -22 -33 -5 0 -8 -3 -7
-7 1 -9 -13 -46 -21 -53 -7 -6 -24 -48 -65 -165 -17 -49 -33 -92 -36 -95 -3
-3 -6 -14 -7 -25 0 -11 -4 -31 -7 -45 -4 -14 -8 -37 -11 -52 -2 -15 -6 -31 -9
-36 -3 -5 -6 -25 -8 -45 -1 -21 -5 -37 -8 -37 -3 0 -6 -17 -7 -38 -1 -20 -5
-73 -8 -117 -9 -102 -12 -375 -4 -375 3 0 6 -24 7 -52 1 -29 4 -64 8 -78 3
-14 7 -34 9 -46 7 -50 29 -140 38 -158 7 -13 6 -16 -3 -11 -7 4 -4 -4 5 -19
10 -14 15 -26 12 -26 -3 0 1 -16 9 -35 8 -19 12 -35 9 -35 -3 0 2 -11 11 -25
9 -14 13 -25 10 -25 -4 0 3 -18 14 -40 11 -21 20 -46 20 -55 0 -8 5 -15 10
-15 6 0 10 -9 10 -19 0 -11 5 -21 11 -23 6 -2 12 -15 12 -30 1 -14 4 -25 6
-22 7 7 30 -31 31 -50 0 -11 3 -17 6 -13 3 3 17 -14 30 -39 13 -24 28 -50 34
-57 5 -7 33 -43 61 -82 29 -38 58 -77 66 -85 7 -8 27 -30 43 -49 16 -18 27
-37 24 -42 -3 -5 4 -9 15 -9 12 0 21 -4 21 -9 0 -11 47 -61 52 -55 3 2 11 -7
18 -21 7 -14 17 -25 21 -25 4 0 23 -14 41 -31 18 -17 53 -47 78 -67 25 -20 52
-45 61 -54 9 -10 21 -18 28 -18 6 0 11 -3 11 -7 0 -5 20 -21 45 -36 25 -16 45
-34 45 -40 0 -5 3 -8 6 -4 4 3 12 1 20 -6 33 -29 44 -37 54 -37 6 0 13 -7 16
-15 4 -8 12 -15 18 -15 7 0 22 -9 34 -20 12 -11 24 -20 27 -20 3 0 46 -27 97
-60 50 -33 95 -60 99 -60 5 0 9 -4 9 -10 0 -5 4 -10 10 -10 17 0 100 -57 93
-64 -4 -4 0 -4 10 0 10 3 17 1 17 -5 0 -6 4 -11 10 -11 15 0 85 -51 83 -61 -2
-4 4 -6 12 -3 8 4 15 1 15 -5 0 -6 4 -11 10 -11 16 0 85 -51 82 -62 -1 -5 2
-7 7 -4 8 5 22 -4 79 -49 7 -5 28 -23 47 -40 18 -16 42 -37 52 -46 31 -28 73
-77 73 -86 0 -10 39 -36 61 -40 26 -4 66 40 79 85 6 23 16 47 24 54 7 7 16 26
20 41 3 15 11 27 16 27 6 0 10 7 10 15 0 9 7 18 15 21 8 4 15 12 15 20 0 8 5
14 10 14 6 0 10 5 10 11 0 15 101 135 112 132 4 -2 7 1 5 6 -1 5 6 17 15 28
10 10 36 37 57 60 22 24 45 43 52 43 7 0 10 3 6 6 -7 8 15 33 25 28 4 -2 9 5
13 16 3 11 10 20 13 20 4 0 24 16 44 36 22 21 42 33 49 28 8 -5 9 -3 4 6 -5 8
3 21 21 36 15 14 52 47 81 74 30 28 56 50 59 50 3 0 18 14 34 31 18 21 33 29
42 24 7 -5 10 -5 6 0 -11 11 12 36 25 28 5 -3 7 -2 4 4 -8 12 40 56 53 48 6
-3 7 1 4 9 -3 9 -2 16 4 16 5 0 31 20 56 43 25 24 46 43 46 41 0 -2 30 25 129
119 28 27 55 45 61 42 6 -4 9 -3 8 2 -3 10 24 53 34 53 4 0 26 20 49 45 23 25
48 45 57 45 8 0 13 3 9 6 -7 7 29 44 43 44 6 0 9 4 8 8 -2 4 9 20 24 35 28 28
45 36 32 15 -4 -7 -3 -8 5 -4 6 4 9 11 6 16 -5 8 49 70 166 192 25 26 44 49
42 52 -2 2 7 13 21 24 15 11 26 25 26 30 0 6 6 15 13 19 7 4 28 29 46 55 19
26 40 49 48 52 8 3 12 10 9 15 -3 4 3 16 14 26 11 10 20 23 20 30 0 6 11 21
25 33 14 12 25 28 25 36 0 8 6 21 13 28 20 19 72 102 69 110 -1 3 5 12 13 18
8 7 15 19 15 27 0 7 7 16 15 19 8 4 13 10 10 15 -6 9 10 42 35 73 8 10 14 21
14 25 -2 9 30 75 39 82 5 3 8 8 6 10 -2 3 3 24 15 59 1 3 7 15 14 28 7 12 10
22 7 22 -4 0 1 15 31 95 4 11 8 25 9 30 1 6 3 12 4 15 4 8 9 31 16 75 4 22 10
42 14 45 3 3 7 19 8 35 0 17 4 48 7 70 12 77 15 131 15 245 0 105 -5 225 -9
225 -2 0 -7 28 -13 75 -3 19 -10 57 -16 83 -6 27 -8 53 -5 59 4 7 2 8 -4 4 -8
-4 -12 0 -12 11 0 10 -7 38 -16 63 -9 25 -18 54 -20 64 -2 11 -8 22 -14 26 -5
3 -11 18 -12 32 -1 15 -5 25 -8 23 -3 -2 -17 21 -30 51 -14 30 -29 54 -33 54
-5 0 -6 4 -3 9 3 5 -1 11 -9 15 -8 3 -15 12 -15 19 0 8 -8 23 -17 35 -10 11
-27 33 -38 49 -11 15 -48 56 -83 91 -35 34 -60 67 -57 72 3 6 -1 7 -9 4 -9 -4
-18 1 -22 10 -3 9 -10 14 -14 11 -5 -3 -11 -1 -15 5 -3 6 -32 27 -63 46 -31
20 -60 42 -64 48 -4 6 -8 7 -8 3 0 -4 -10 -2 -22 5 -13 6 -30 13 -38 14 -8 2
-16 8 -18 14 -2 5 -7 8 -12 5 -5 -3 -14 1 -22 8 -7 8 -20 13 -28 12 -8 -1 -26
2 -40 8 -14 5 -32 11 -40 12 -8 2 -26 6 -40 10 -26 7 -266 16 -272 10z"/>
<path d="M4793 3275 c0 -8 4 -12 9 -9 5 3 6 10 3 15 -9 13 -12 11 -12 -6z"/>
<path d="M1470 1040 c0 -5 5 -10 11 -10 5 0 7 5 4 10 -3 6 -8 10 -11 10 -2 0
-4 -4 -4 -10z"/>
</g>
</svg>
